<svg width="237" height="237" viewBox="0 0 237 237" fill="none" xmlns="http://www.w3.org/2000/svg">
<path d="M61.2 160.2L3.30001 102.3C1.21593e-05 99.0002 1.21593e-05 93.3002 3.30001 90.0002L5.10001 88.2002C8.40001 84.9002 14.1 84.9002 17.4 88.2002L110.7 181.5C114 184.8 119.7 184.8 123 181.5L124.8 179.7C128.1 176.4 128.1 170.7 124.8 167.4L52.2 94.8002C48.9 91.5002 48.9 85.8002 52.2 82.5002L54 80.7002C57.3 77.4002 63 77.4002 66.3 80.7002L153 167.1C156.3 170.4 162 170.4 165.3 167.1L167.1 165.3C170.4 162 170.4 156.3 167.1 153L31.5 17.4002C28.2 14.1002 28.2 8.40019 31.5 5.10019L33.3 3.3002C36.6 0.000195265 42.3 0.000195265 45.6 3.3002L195.6 153.3C198.9 156.6 204.6 156.6 207.9 153.3L209.7 151.5C213 148.2 213 142.5 209.7 139.2L87.9 17.4002C84.6 14.1002 84.6 8.40019 87.9 5.10019L89.7 3.3002C93 0.000195265 98.7 0.000195265 102 3.3002L203.1 89.4002C207.6 93.3002 213.6 86.7002 209.4 82.5002L186.6 59.7002C183.3 56.4002 183.3 50.7002 186.6 47.4002L222 12.0002C227.4 6.6002 237 10.5002 237 18.3002V228.3C237 233.1 233.1 237 228.3 237H18C10.2 237 6.30001 227.7 11.7 222L61.2 172.5C64.8 169.2 64.8 163.8 61.2 160.2Z" fill="#F62459"/>
</svg>
