<svg width="61" height="61" viewBox="0 0 61 61" fill="none" xmlns="http://www.w3.org/2000/svg">
<path d="M51.2546 19.7608L51.3375 20.4168H51.9987H54.875C56.1127 20.4168 57.2996 20.9085 58.1748 21.7837C59.05 22.6589 59.5416 23.8458 59.5416 25.0835V35.9168C59.5416 37.1545 59.05 38.3415 58.1748 39.2167C57.2996 40.0918 56.1127 40.5835 54.875 40.5835H51.9987H51.3374L51.2546 41.2397C50.6172 46.2945 48.157 50.9429 44.3357 54.3126C40.7023 57.5167 36.0758 59.3553 31.25 59.5284V55.6086C35.4859 55.4217 39.5099 53.6569 42.5208 50.646C45.7089 47.4579 47.5 43.1339 47.5 38.6252V22.3752C47.5 17.8665 45.7089 13.5425 42.5208 10.3544C39.3327 7.16624 35.0087 5.37518 30.5 5.37518C25.9913 5.37518 21.6673 7.16624 18.4792 10.3544C15.291 13.5425 13.5 17.8665 13.5 22.3752V40.5835H6.12498C4.8873 40.5835 3.70032 40.0918 2.82515 39.2167C1.94998 38.3415 1.45831 37.1545 1.45831 35.9168V25.0835C1.45831 23.8458 1.94998 22.6589 2.82515 21.7837C3.70032 20.9085 4.8873 20.4168 6.12498 20.4168H9.00123H9.6625L9.74532 19.7608C10.3834 14.7065 12.8438 10.0587 16.665 6.68957C20.4863 3.32041 25.4056 1.46143 30.5 1.46143C35.5944 1.46143 40.5137 3.32041 44.3349 6.68957C48.1561 10.0587 50.6166 14.7065 51.2546 19.7608ZM6.12498 24.3335H5.37498V25.0835V35.9168V36.6668H6.12498H8.83331H9.58331V35.9168V25.0835V24.3335H8.83331H6.12498ZM52.1666 24.3335H51.4166V25.0835V35.9168V36.6668H52.1666H54.875H55.625V35.9168V25.0835V24.3335H54.875H52.1666ZM38.8656 37.1779L40.9431 40.502C37.7727 42.3329 34.1711 43.2975 30.5011 43.2918L30.4988 43.2918C26.8289 43.2975 23.2273 42.3329 20.0569 40.502L22.1344 37.1779C24.6818 38.6204 27.564 39.3797 30.5 39.3752C33.436 39.3797 36.3182 38.6204 38.8656 37.1779Z" fill="white" stroke="#2E2E2E" stroke-width="1.5"/>
</svg>
