<svg width="24" height="24" viewBox="0 0 24 24" fill="none" xmlns="http://www.w3.org/2000/svg">
<path d="M4.45894 18.9831C3.82348 19.7429 3.48239 20.682 3.37579 21.2683C3.22759 22.0834 2.81505 22.6482 1.99999 22.5C1.18492 22.3518 1.27598 21.5467 1.42418 20.7316C1.60646 19.7291 2.13204 18.2848 3.1577 17.0585C4.21733 15.7915 5.94204 15.5 8.19999 15.5H16C18.2579 15.5 19.7827 15.7915 20.8423 17.0585C21.868 18.2848 22.3935 19.7291 22.5758 20.7316C22.724 21.5467 22.8151 22.3518 22 22.5C21.1849 22.6482 20.7724 22.0834 20.6242 21.2683C20.5176 20.682 20.1765 19.7429 19.541 18.9831C18.4958 17.7333 17.1087 17.7333 15.9 17.7333H8.09999C6.89124 17.7333 5.50421 17.7333 4.45894 18.9831Z" fill="white"/>
<path fill-rule="evenodd" clip-rule="evenodd" d="M12 12C14.2146 12 16 10.25 16 8C16 5.75 14.1833 4 12 4C9.81665 4 8 5.86665 8 8C8 10.1334 9.7854 12 12 12ZM12.0666 14.1334C15.4172 14.1334 18.1333 11.4172 18.1333 8.06665C18.1333 4.71614 15.4172 2 12.0666 2C8.7161 2 6 4.71614 6 8.06665C6 11.4172 8.7161 14.1334 12.0666 14.1334Z" fill="white"/>
</svg>
