<svg width="118" height="30" viewBox="0 0 118 30" fill="none" xmlns="http://www.w3.org/2000/svg">
<path d="M38.2259 4.97999V4.13999L41.3221 4.13531V6.79132C40.8469 7.16266 40.3568 7.44199 39.8516 7.62932C39.3465 7.81599 38.8278 7.91 38.2961 7.91C37.5778 7.91 36.9256 7.75933 36.3388 7.45799C35.752 7.15666 35.3088 6.72132 35.0099 6.15199C34.7111 5.58198 34.5613 4.94598 34.5613 4.24265C34.5613 3.54598 34.7097 2.89598 35.0072 2.29198C35.3047 1.68798 35.7329 1.23998 36.2912 0.946648C36.8501 0.653981 37.4927 0.507311 38.2212 0.507311C38.7495 0.507311 39.2274 0.591306 39.6542 0.75864C40.0817 0.92664 40.4167 1.15997 40.6591 1.45931C40.9021 1.75931 41.0866 2.14998 41.2125 2.63131L40.3405 2.86598C40.2302 2.50131 40.094 2.21465 39.9313 2.00665C39.7686 1.79798 39.5358 1.63131 39.2335 1.50597C38.9305 1.38064 38.5949 1.31798 38.2259 1.31798C37.7841 1.31798 37.4015 1.38397 37.0795 1.51597C36.7568 1.64731 36.4968 1.82064 36.2987 2.03597C36.1012 2.25064 35.9473 2.48665 35.8377 2.74398C35.6512 3.18665 35.5586 3.66665 35.5586 4.18399C35.5586 4.82199 35.6703 5.35598 35.8949 5.78598C36.1196 6.21532 36.4457 6.53465 36.8746 6.74265C37.3035 6.95132 37.7589 7.05532 38.2409 7.05532C38.6596 7.05532 39.0688 6.97666 39.4677 6.81865C39.8666 6.66065 40.1689 6.49199 40.3752 6.31333V4.97999H38.2259Z" fill="white"/>
<path d="M42.7681 7.78734V0.629316H48.0537V1.47399H43.7355V3.66667H47.7794V4.50667H43.7355V6.94266H48.2232V7.78734H42.7681Z" fill="white"/>
<path d="M51.4195 7.78734V1.47399H49.0109V0.629316H54.805V1.47399H52.3869V7.78734H51.4195Z" fill="white"/>
<path d="M58.6147 7.78734V0.629316H59.5821V7.78734H58.6147Z" fill="white"/>
<path d="M61.2772 7.78734V0.629316H62.2691L66.1087 6.24933V0.629316H67.036V7.78734H66.044L62.2044 2.16265V7.78734H61.2772Z" fill="white"/>
<path d="M72.2017 4.31598C72.2017 5.17865 72.4386 5.85799 72.9125 6.35466C73.3863 6.85132 73.9799 7.09932 74.6948 7.09932C75.4232 7.09932 76.0223 6.84866 76.4927 6.34733C76.9631 5.84599 77.198 5.13466 77.198 4.21332C77.198 3.63065 77.0972 3.12198 76.8964 2.68732C76.6956 2.25265 76.4008 1.91598 76.0141 1.67665C75.6267 1.43732 75.1917 1.31798 74.7097 1.31798C74.0249 1.31798 73.436 1.54864 72.9424 2.00864C72.4488 2.46931 72.2017 3.23864 72.2017 4.31598ZM71.2044 4.30132C71.2044 3.11332 71.5305 2.18332 72.182 1.51065C72.8335 0.838645 73.6743 0.502637 74.705 0.502637C75.3796 0.502637 75.9882 0.660637 76.5301 0.975971C77.0713 1.29197 77.4846 1.73198 77.7692 2.29665C78.053 2.86199 78.1953 3.50198 78.1953 4.21865C78.1953 4.94398 78.0455 5.59399 77.7467 6.16666C77.4471 6.73933 77.0237 7.17332 76.475 7.46799C75.9263 7.76266 75.3347 7.91 74.7002 7.91C74.0119 7.91 73.3972 7.74666 72.8553 7.42132C72.3134 7.09599 71.9029 6.65199 71.6237 6.08865C71.3446 5.52532 71.2044 4.92932 71.2044 4.30132Z" fill="white"/>
<path d="M79.4316 7.78734V0.629316H80.4242L84.2638 6.24933V0.629316H85.1911V7.78734H84.1985L80.3596 2.16265V7.78734H79.4316Z" fill="white"/>
<path d="M37.9271 20.3007H42.553L41.1288 16.6C40.6945 15.476 40.3717 14.5527 40.1607 13.8293C39.9871 14.686 39.742 15.5367 39.4255 16.3814L37.9271 20.3007ZM33.9894 25.7874L39.2301 12.426H41.1751L46.7595 25.7874H44.7029L43.1112 21.7407H37.4056L35.9072 25.7874H33.9894Z" fill="white"/>
<path d="M37.9271 20.3007H42.553L41.1288 16.6C40.6945 15.476 40.3717 14.5527 40.1607 13.8293C39.9871 14.686 39.742 15.5367 39.4255 16.3814L37.9271 20.3007ZM33.9894 25.7874L39.2301 12.426H41.1751L46.7595 25.7874H44.7029L43.1112 21.7407H37.4056L35.9072 25.7874H33.9894Z" fill="white"/>
<path d="M49.5051 21.0027C49.5051 22.248 49.7631 23.1687 50.2778 23.764C50.7932 24.36 51.4168 24.6574 52.1486 24.6574C52.8934 24.6574 53.5313 24.3494 54.0616 23.732C54.5919 23.1154 54.8574 22.16 54.8574 20.866C54.8574 19.632 54.5981 18.7087 54.08 18.0953C53.5619 17.4813 52.9431 17.1747 52.2235 17.1747C51.5093 17.1747 50.8783 17.5013 50.3289 18.154C49.7802 18.8074 49.5051 19.7567 49.5051 21.0027ZM47.9883 29.4974V16.108H49.5146V17.366C49.8748 16.8733 50.2812 16.5047 50.7339 16.2587C51.1867 16.012 51.736 15.8893 52.3814 15.8893C53.2256 15.8893 53.9697 16.102 54.6151 16.5273C55.2605 16.9527 55.7479 17.5527 56.0767 18.3274C56.4055 19.102 56.5696 19.9514 56.5696 20.8747C56.5696 21.8654 56.3885 22.7574 56.0257 23.55C55.6621 24.3434 55.1352 24.9507 54.4428 25.3727C53.7512 25.7954 53.0234 26.0067 52.2602 26.0067C51.702 26.0067 51.2009 25.8907 50.7571 25.66C50.3139 25.4294 49.949 25.1374 49.6637 24.7854V29.4974H47.9883Z" fill="white"/>
<path d="M49.5051 21.0027C49.5051 22.248 49.7631 23.1687 50.2778 23.764C50.7932 24.36 51.4168 24.6574 52.1486 24.6574C52.8934 24.6574 53.5313 24.3494 54.0616 23.732C54.5919 23.1154 54.8574 22.16 54.8574 20.866C54.8574 19.632 54.5981 18.7087 54.08 18.0953C53.5619 17.4813 52.9431 17.1747 52.2235 17.1747C51.5093 17.1747 50.8783 17.5013 50.3289 18.154C49.7802 18.8074 49.5051 19.7567 49.5051 21.0027ZM47.9883 29.4974V16.108H49.5146V17.366C49.8748 16.8733 50.2812 16.5047 50.7339 16.2587C51.1867 16.012 51.736 15.8893 52.3814 15.8893C53.2256 15.8893 53.9697 16.102 54.6151 16.5273C55.2605 16.9527 55.7479 17.5527 56.0767 18.3274C56.4055 19.102 56.5696 19.9514 56.5696 20.8747C56.5696 21.8654 56.3885 22.7574 56.0257 23.55C55.6621 24.3434 55.1352 24.9507 54.4428 25.3727C53.7512 25.7954 53.0234 26.0067 52.2602 26.0067C51.702 26.0067 51.2009 25.8907 50.7571 25.66C50.3139 25.4294 49.949 25.1374 49.6637 24.7854V29.4974H47.9883Z" fill="white"/>
<path d="M60.107 21.0027C60.107 22.248 60.3643 23.1687 60.879 23.764C61.3943 24.36 62.0179 24.6574 62.7504 24.6574C63.4945 24.6574 64.1324 24.3494 64.6628 23.732C65.1931 23.1154 65.4586 22.16 65.4586 20.866C65.4586 19.632 65.1992 18.7087 64.6811 18.0953C64.1631 17.4813 63.5442 17.1747 62.8246 17.1747C62.1112 17.1747 61.4794 17.5013 60.9307 18.154C60.3813 18.8074 60.107 19.7567 60.107 21.0027ZM58.5895 29.4974V16.108H60.1158V17.366C60.476 16.8733 60.8824 16.5047 61.3351 16.2587C61.7885 16.012 62.3372 15.8893 62.9826 15.8893C63.8268 15.8893 64.5708 16.102 65.2169 16.5273C65.8616 16.9527 66.3491 17.5527 66.6779 18.3274C67.0067 19.102 67.1714 19.9514 67.1714 20.8747C67.1714 21.8654 66.9897 22.7574 66.6268 23.55C66.264 24.3434 65.7364 24.9507 65.0447 25.3727C64.3523 25.7954 63.6252 26.0067 62.8621 26.0067C62.3032 26.0067 61.8021 25.8907 61.3589 25.66C60.915 25.4294 60.5502 25.1374 60.2649 24.7854V29.4974H58.5895Z" fill="white"/>
<path d="M60.107 21.0027C60.107 22.248 60.3643 23.1687 60.879 23.764C61.3943 24.36 62.0179 24.6574 62.7504 24.6574C63.4945 24.6574 64.1324 24.3494 64.6628 23.732C65.1931 23.1154 65.4586 22.16 65.4586 20.866C65.4586 19.632 65.1992 18.7087 64.6811 18.0953C64.1631 17.4813 63.5442 17.1747 62.8246 17.1747C62.1112 17.1747 61.4794 17.5013 60.9307 18.154C60.3813 18.8074 60.107 19.7567 60.107 21.0027ZM58.5895 29.4974V16.108H60.1158V17.366C60.476 16.8733 60.8824 16.5047 61.3351 16.2587C61.7885 16.012 62.3372 15.8893 62.9826 15.8893C63.8268 15.8893 64.5708 16.102 65.2169 16.5273C65.8616 16.9527 66.3491 17.5527 66.6779 18.3274C67.0067 19.102 67.1714 19.9514 67.1714 20.8747C67.1714 21.8654 66.9897 22.7574 66.6268 23.55C66.264 24.3434 65.7364 24.9507 65.0447 25.3727C64.3523 25.7954 63.6252 26.0067 62.8621 26.0067C62.3032 26.0067 61.8021 25.8907 61.3589 25.66C60.915 25.4294 60.5502 25.1374 60.2649 24.7854V29.4974H58.5895Z" fill="white"/>
<path d="M74.0868 21.4947L75.7902 21.3487C75.8705 22.0174 76.0584 22.5654 76.3531 22.994C76.6479 23.4227 77.1054 23.7687 77.7263 24.0334C78.3465 24.2974 79.0443 24.4294 79.8204 24.4294C80.5086 24.4294 81.1173 24.3294 81.6442 24.1287C82.1718 23.9287 82.5646 23.6534 82.8219 23.304C83.0793 22.9547 83.208 22.5734 83.208 22.16C83.208 21.7407 83.084 21.3747 82.8356 21.062C82.5877 20.7487 82.1779 20.486 81.6074 20.2734C81.2412 20.1334 80.431 19.9167 79.1777 19.622C77.9244 19.3267 77.0462 19.0487 76.5438 18.7874C75.8923 18.4534 75.4069 18.0387 75.0876 17.5434C74.7676 17.0487 74.6076 16.494 74.6076 15.88C74.6076 15.2053 74.8037 14.5753 75.1945 13.9887C75.5852 13.4027 76.1557 12.9573 76.9066 12.6533C77.6575 12.35 78.4922 12.198 79.4106 12.198C80.4222 12.198 81.314 12.3573 82.0867 12.6767C82.8594 12.9953 83.453 13.4647 83.869 14.0847C84.2849 14.704 84.5083 15.406 84.5389 16.19L82.8077 16.3173C82.7151 15.4733 82.3999 14.8353 81.8634 14.4033C81.3263 13.972 80.5338 13.7567 79.4854 13.7567C78.3928 13.7567 77.597 13.9527 77.0979 14.344C76.5982 14.736 76.3484 15.2087 76.3484 15.762C76.3484 16.242 76.5254 16.6367 76.8787 16.9467C77.2266 17.2567 78.1341 17.574 79.6012 17.8987C81.0689 18.224 82.0758 18.508 82.6218 18.7513C83.4163 19.11 84.0024 19.564 84.3809 20.114C84.7594 20.664 84.9487 21.2974 84.9487 22.014C84.9487 22.7254 84.7404 23.3954 84.3251 24.024C83.9091 24.6527 83.3121 25.142 82.5333 25.4914C81.7545 25.8407 80.8783 26.0154 79.9041 26.0154C78.6692 26.0154 77.6344 25.8394 76.7998 25.4867C75.9651 25.1347 75.3109 24.604 74.8357 23.8967C74.3612 23.1887 74.1113 22.388 74.0868 21.4947Z" fill="white"/>
<path d="M74.0868 21.4947L75.7902 21.3487C75.8705 22.0174 76.0584 22.5654 76.3531 22.994C76.6479 23.4227 77.1054 23.7687 77.7263 24.0334C78.3465 24.2974 79.0443 24.4294 79.8204 24.4294C80.5086 24.4294 81.1173 24.3294 81.6442 24.1287C82.1718 23.9287 82.5646 23.6534 82.8219 23.304C83.0793 22.9547 83.208 22.5734 83.208 22.16C83.208 21.7407 83.084 21.3747 82.8356 21.062C82.5877 20.7487 82.1779 20.486 81.6074 20.2734C81.2412 20.1334 80.431 19.9167 79.1777 19.622C77.9244 19.3267 77.0462 19.0487 76.5438 18.7874C75.8923 18.4534 75.4069 18.0387 75.0876 17.5434C74.7676 17.0487 74.6076 16.494 74.6076 15.88C74.6076 15.2053 74.8037 14.5753 75.1945 13.9887C75.5852 13.4027 76.1557 12.9573 76.9066 12.6533C77.6575 12.35 78.4922 12.198 79.4106 12.198C80.4222 12.198 81.314 12.3573 82.0867 12.6767C82.8594 12.9953 83.453 13.4647 83.869 14.0847C84.2849 14.704 84.5083 15.406 84.5389 16.19L82.8077 16.3173C82.7151 15.4733 82.3999 14.8353 81.8634 14.4033C81.3263 13.972 80.5338 13.7567 79.4854 13.7567C78.3928 13.7567 77.597 13.9527 77.0979 14.344C76.5982 14.736 76.3484 15.2087 76.3484 15.762C76.3484 16.242 76.5254 16.6367 76.8787 16.9467C77.2266 17.2567 78.1341 17.574 79.6012 17.8987C81.0689 18.224 82.0758 18.508 82.6218 18.7513C83.4163 19.11 84.0024 19.564 84.3809 20.114C84.7594 20.664 84.9487 21.2974 84.9487 22.014C84.9487 22.7254 84.7404 23.3954 84.3251 24.024C83.9091 24.6527 83.3121 25.142 82.5333 25.4914C81.7545 25.8407 80.8783 26.0154 79.9041 26.0154C78.6692 26.0154 77.6344 25.8394 76.7998 25.4867C75.9651 25.1347 75.3109 24.604 74.8357 23.8967C74.3612 23.1887 74.1113 22.388 74.0868 21.4947Z" fill="white"/>
<path d="M90.8592 24.32L91.1009 25.7694C90.6291 25.8667 90.2078 25.9154 89.8354 25.9154C89.2267 25.9154 88.7556 25.8207 88.4207 25.6327C88.0851 25.4447 87.8495 25.1967 87.7127 24.89C87.5765 24.5834 87.5084 23.9374 87.5084 22.9534V17.384H86.2796V16.108H87.5084V13.7107L89.1743 12.7267V16.108H90.8592V17.384H89.1743V23.044C89.1743 23.512 89.2036 23.8127 89.2628 23.9467C89.3214 24.08 89.418 24.1867 89.5515 24.2654C89.6849 24.3447 89.8755 24.384 90.1233 24.384C90.3098 24.384 90.5549 24.3627 90.8592 24.32Z" fill="white"/>
<path d="M90.8592 24.32L91.1009 25.7694C90.6291 25.8667 90.2078 25.9154 89.8354 25.9154C89.2267 25.9154 88.7556 25.8207 88.4207 25.6327C88.0851 25.4447 87.8495 25.1967 87.7127 24.89C87.5765 24.5834 87.5084 23.9374 87.5084 22.9534V17.384H86.2796V16.108H87.5084V13.7107L89.1743 12.7267V16.108H90.8592V17.384H89.1743V23.044C89.1743 23.512 89.2036 23.8127 89.2628 23.9467C89.3214 24.08 89.418 24.1867 89.5515 24.2654C89.6849 24.3447 89.8755 24.384 90.1233 24.384C90.3098 24.384 90.5549 24.3627 90.8592 24.32Z" fill="white"/>
<path d="M93.5953 20.948C93.5953 22.1874 93.8717 23.1154 94.4238 23.732C94.976 24.3494 95.671 24.6574 96.5084 24.6574C97.3403 24.6574 98.032 24.3474 98.5841 23.7281C99.1362 23.108 99.4126 22.1634 99.4126 20.8934C99.4126 19.696 99.1348 18.7894 98.5793 18.1727C98.0245 17.556 97.3335 17.2474 96.5084 17.2474C95.671 17.2474 94.976 17.554 94.4238 18.168C93.8717 18.782 93.5953 19.708 93.5953 20.948ZM91.8736 20.948C91.8736 19.1554 92.3822 17.8274 93.3999 16.9647C94.2502 16.248 95.2864 15.8894 96.5084 15.8894C97.8672 15.8894 98.9783 16.3254 99.8408 17.1974C100.703 18.0694 101.134 19.274 101.134 20.8114C101.134 22.0567 100.944 23.0367 100.562 23.7507C100.181 24.4647 99.625 25.0194 98.8959 25.4141C98.1668 25.8087 97.3709 26.0067 96.5084 26.0067C95.125 26.0067 94.0065 25.5721 93.1535 24.7034C92.2998 23.8341 91.8736 22.5827 91.8736 20.948Z" fill="white"/>
<path d="M93.5953 20.948C93.5953 22.1874 93.8717 23.1154 94.4238 23.732C94.976 24.3494 95.671 24.6574 96.5084 24.6574C97.3403 24.6574 98.032 24.3474 98.5841 23.7281C99.1362 23.108 99.4126 22.1634 99.4126 20.8934C99.4126 19.696 99.1348 18.7894 98.5793 18.1727C98.0245 17.556 97.3335 17.2474 96.5084 17.2474C95.671 17.2474 94.976 17.554 94.4238 18.168C93.8717 18.782 93.5953 19.708 93.5953 20.948ZM91.8736 20.948C91.8736 19.1554 92.3822 17.8274 93.3999 16.9647C94.2502 16.248 95.2864 15.8894 96.5084 15.8894C97.8672 15.8894 98.9783 16.3254 99.8408 17.1974C100.703 18.0694 101.134 19.274 101.134 20.8114C101.134 22.0567 100.944 23.0367 100.562 23.7507C100.181 24.4647 99.625 25.0194 98.8959 25.4141C98.1668 25.8087 97.3709 26.0067 96.5084 26.0067C95.125 26.0067 94.0065 25.5721 93.1535 24.7034C92.2998 23.8341 91.8736 22.5827 91.8736 20.948Z" fill="white"/>
<path d="M103.08 25.7874V16.108H104.588V17.5754C104.973 16.8887 105.327 16.436 105.653 16.2174C105.979 15.9987 106.338 15.8894 106.728 15.8894C107.293 15.8894 107.867 16.0654 108.45 16.418L107.873 17.94C107.464 17.7034 107.054 17.5847 106.645 17.5847C106.278 17.5847 105.949 17.6927 105.658 17.908C105.366 18.124 105.158 18.4234 105.034 18.806C104.848 19.3894 104.755 20.0274 104.755 20.72V25.7874H103.08Z" fill="white"/>
<path d="M103.08 25.7874V16.108H104.588V17.5754C104.973 16.8887 105.327 16.436 105.653 16.2174C105.979 15.9987 106.338 15.8894 106.728 15.8894C107.293 15.8894 107.867 16.0654 108.45 16.418L107.873 17.94C107.464 17.7034 107.054 17.5847 106.645 17.5847C106.278 17.5847 105.949 17.6927 105.658 17.908C105.366 18.124 105.158 18.4234 105.034 18.806C104.848 19.3894 104.755 20.0274 104.755 20.72V25.7874H103.08Z" fill="white"/>
<path d="M110.712 20.018H116.231C116.157 19.204 115.946 18.5934 115.598 18.186C115.064 17.554 114.373 17.238 113.523 17.238C112.753 17.238 112.106 17.4907 111.582 17.9947C111.058 18.4994 110.768 19.1734 110.712 20.018ZM116.213 22.6707L117.944 22.88C117.671 23.8707 117.165 24.6394 116.427 25.1861C115.688 25.7327 114.745 26.0067 113.597 26.0067C112.151 26.0067 111.005 25.5707 110.158 24.6987C109.311 23.8267 108.888 22.604 108.888 21.03C108.888 19.4014 109.316 18.1374 110.172 17.238C111.028 16.3387 112.139 15.8894 113.504 15.8894C114.826 15.8894 115.906 16.33 116.743 17.2107C117.581 18.092 118 19.3314 118 20.9294C118 21.0267 117.997 21.1727 117.99 21.3674H110.619C110.681 22.4307 110.988 23.2447 111.54 23.8101C112.093 24.3747 112.781 24.6574 113.607 24.6574C114.221 24.6574 114.745 24.4994 115.18 24.1834C115.614 23.8674 115.958 23.3634 116.213 22.6707Z" fill="white"/>
<path d="M110.712 20.018H116.231C116.157 19.204 115.946 18.5934 115.598 18.186C115.064 17.554 114.373 17.238 113.523 17.238C112.753 17.238 112.106 17.4907 111.582 17.9947C111.058 18.4994 110.768 19.1734 110.712 20.018ZM116.213 22.6707L117.944 22.88C117.671 23.8707 117.165 24.6394 116.427 25.1861C115.688 25.7327 114.745 26.0067 113.597 26.0067C112.151 26.0067 111.005 25.5707 110.158 24.6987C109.311 23.8267 108.888 22.604 108.888 21.03C108.888 19.4014 109.316 18.1374 110.172 17.238C111.028 16.3387 112.139 15.8894 113.504 15.8894C114.826 15.8894 115.906 16.33 116.743 17.2107C117.581 18.092 118 19.3314 118 20.9294C118 21.0267 117.997 21.1727 117.99 21.3674H110.619C110.681 22.4307 110.988 23.2447 111.54 23.8101C112.093 24.3747 112.781 24.6574 113.607 24.6574C114.221 24.6574 114.745 24.4994 115.18 24.1834C115.614 23.8674 115.958 23.3634 116.213 22.6707Z" fill="white"/>
<path d="M24.127 10.2267C24.127 10.2267 19.1804 12.984 21.3807 18.6193C21.8974 19.9427 23.1534 21.2474 24.9276 22.0027C24.9276 22.0027 24.6559 22.948 24.016 24.252C23.3849 25.5387 22.2759 27.206 20.9545 28.594C20.9545 28.594 19.9803 29.614 18.8815 29.8507C18.2035 29.996 17.3675 30.002 16.3742 29.6514C16.3742 29.6514 15.0589 29.0634 14.2046 28.8774C13.2494 28.6694 12.0056 28.7827 11.3691 29C10.7326 29.2174 9.41185 29.7367 9.41185 29.7367C9.41185 29.7367 7.71467 30.5487 5.98821 29.3207C4.35092 28.1567 2.47808 25.1374 2.1411 24.4767C1.88036 23.9667 0.675372 21.8327 0.156616 18.52C0.00343959 17.5447 -0.0333147 16.46 0.0286365 15.2887C0.202236 12.0307 1.9287 9.83267 3.17658 8.87667C3.75524 8.43333 4.2134 8.20599 4.32981 8.14932C4.69607 7.96999 6.95287 6.77065 9.51806 7.63932C11.476 8.30265 12.0635 8.64066 12.7191 8.63066C12.8634 8.62866 13.0132 8.59133 13.163 8.55799C13.7478 8.42666 14.3101 8.18733 14.3101 8.18733C14.7199 8.00599 15.144 7.85266 15.5695 7.71333C15.9562 7.58666 16.3483 7.47533 16.7473 7.39C16.9488 7.34733 17.1524 7.31132 17.3573 7.28599C17.5881 7.25732 17.8277 7.23732 18.0619 7.24265C18.4819 7.25199 18.8706 7.27933 19.2866 7.33733C19.6637 7.38999 20.0402 7.47399 20.4051 7.58265C20.7387 7.68199 21.0662 7.80332 21.3861 7.93932C22.1262 8.25332 22.8716 8.76732 23.5585 9.51866L24.127 10.2267Z" fill="white"/>
<path d="M18.5438 0C18.5438 0 17.3497 0 15.8772 0.810002C14.2236 1.71867 12.0246 3.99467 12.3916 6.88401C12.3916 6.88401 13.1289 7.06868 14.2705 6.64735C14.3951 6.60135 14.5218 6.54335 14.6572 6.48735C16.2271 5.83935 17.618 4.35 18.2313 2.622C18.5295 1.78133 18.6596 0.944002 18.5438 0Z" fill="white"/>
</svg>
