<svg width="139" height="30" viewBox="0 0 139 30" fill="none" xmlns="http://www.w3.org/2000/svg">
<path d="M25.993 12.0635C28.3322 13.3689 28.3299 16.6749 25.9888 17.9769L19.7356 21.4562L13.0575 14.9742L19.7575 8.58282L25.993 12.0635Z" fill="#FBBC04"/>
<path d="M19.7575 8.58282L13.0575 14.9742L0.139847 2.43681C0.742045 0.418802 3.17709 -0.671874 5.18816 0.4508L19.7575 8.58282Z" fill="#34A853"/>
<path d="M13.0575 14.9742L19.7356 21.4562L5.18392 29.5516C3.10367 30.709 0.573188 29.5016 0.0842468 27.351L13.0575 14.9742Z" fill="#EA4335"/>
<path d="M13.0575 14.9742L0.0842468 27.351C0.0292852 27.1096 0 26.857 0 26.5936V3.40681C0 3.06548 0.0491056 2.74082 0.139847 2.43681L13.0575 14.9742Z" fill="#4285F4"/>
<path d="M39.6138 4.87083V4.03082L42.7075 4.02615V6.68216C42.2327 7.0535 41.7429 7.33283 41.2382 7.5195C40.7335 7.70684 40.2152 7.80084 39.6839 7.80084C38.9663 7.80084 38.3146 7.65017 37.7283 7.34884C37.1419 7.04817 36.6991 6.61216 36.4005 6.04283C36.1019 5.47282 35.9522 4.83683 35.9522 4.13349C35.9522 3.43682 36.1005 2.78681 36.3978 2.1828C36.695 1.5788 37.1229 1.1308 37.6807 0.837468C38.2391 0.544799 38.8812 0.398129 39.6091 0.398129C40.1369 0.398129 40.6144 0.482125 41.0409 0.649459C41.4681 0.81746 41.8028 1.05081 42.0449 1.35014C42.2878 1.65014 42.4721 2.0408 42.598 2.52214L41.7266 2.75682C41.6164 2.39215 41.4804 2.10548 41.3178 1.89747C41.1552 1.68881 40.9226 1.52214 40.6206 1.39681C40.3179 1.27147 39.9825 1.2088 39.6138 1.2088C39.1724 1.2088 38.7901 1.27481 38.4684 1.40681C38.1459 1.53814 37.8861 1.71148 37.6881 1.92681C37.4909 2.14148 37.3372 2.37747 37.2276 2.63481C37.0413 3.07748 36.9488 3.55748 36.9488 4.07482C36.9488 4.71282 37.0603 5.24683 37.2848 5.67683C37.5092 6.10617 37.8351 6.4255 38.2636 6.63351C38.6922 6.84217 39.1472 6.94616 39.6288 6.94616C40.0471 6.94616 40.456 6.8675 40.8546 6.7095C41.2532 6.55149 41.5552 6.38284 41.7613 6.20417V4.87083H39.6138Z" fill="white"/>
<path d="M44.1523 7.67882V0.520119H49.4335V1.36479H45.1189V3.55747H49.1594V4.39747H45.1189V6.83349H49.6029V7.67882H44.1523Z" fill="white"/>
<path d="M52.7965 7.67882V1.36479H50.3899V0.520119H56.1792V1.36479H53.7631V7.67882H52.7965Z" fill="white"/>
<path d="M59.9857 7.67882V0.520119H60.9523V7.67882H59.9857Z" fill="white"/>
<path d="M62.6461 7.67882V0.520119H63.6372L67.4736 6.14015V0.520119H68.4V7.67882H67.409L63.5725 2.05346V7.67882H62.6461Z" fill="white"/>
<path d="M73.5616 4.20682C73.5616 5.0695 73.7983 5.74883 74.2717 6.2455C74.7451 6.74217 75.339 6.99017 76.0525 6.99017C76.7803 6.99017 77.3789 6.7395 77.849 6.23817C78.319 5.73683 78.5537 5.02549 78.5537 4.10415C78.5537 3.52148 78.453 3.01281 78.2523 2.57814C78.0517 2.14347 77.7571 1.80681 77.3708 1.56747C76.9837 1.32814 76.5491 1.2088 76.0675 1.2088C75.3832 1.2088 74.7948 1.4388 74.3016 1.89947C73.8085 2.36014 73.5616 3.12948 73.5616 4.20682ZM72.565 4.19215C72.565 3.00414 72.8909 2.07414 73.5418 1.40147C74.1928 0.729465 75.0329 0.393468 76.0627 0.393468C76.7368 0.393468 77.3449 0.551469 77.8864 0.866804C78.4278 1.18281 78.84 1.62281 79.1244 2.18748C79.408 2.75281 79.5502 3.39281 79.5502 4.10948C79.5502 4.83482 79.4006 5.48483 79.1019 6.0575C78.8026 6.63017 78.3795 7.06417 77.8313 7.35884C77.2837 7.6535 76.6919 7.80084 76.058 7.80084C75.3703 7.80084 74.756 7.6375 74.2146 7.31217C73.6731 6.98683 73.2629 6.54283 72.984 5.97949C72.7052 5.41616 72.565 4.82015 72.565 4.19215Z" fill="white"/>
<path d="M80.7855 7.67882V0.520119H81.7772L85.6136 6.14015V0.520119H86.5401V7.67882H85.5483L81.7126 2.05346V7.67882H80.7855Z" fill="white"/>
<path d="M43.2585 20.4376V18.8702L49.0335 18.8609V23.8189C48.1465 24.5123 47.2323 25.0329 46.2902 25.3823C45.3474 25.7316 44.3801 25.9063 43.3884 25.9063C42.049 25.9063 40.8321 25.6256 39.7383 25.0636C38.6439 24.5016 37.8174 23.6889 37.2596 22.6249C36.7018 21.5623 36.4229 20.3736 36.4229 19.0616C36.4229 17.7609 36.7005 16.5476 37.2548 15.4202C37.8099 14.2929 38.6085 13.4555 39.6499 12.9089C40.6913 12.3622 41.8912 12.0889 43.2489 12.0889C44.2346 12.0889 45.1257 12.2455 45.9229 12.5582C46.7194 12.8709 47.3439 13.3069 47.7962 13.8662C48.2492 14.4249 48.5927 15.1542 48.8288 16.0536L47.201 16.4909C46.9969 15.8102 46.7425 15.2756 46.4385 14.8869C46.1351 14.4982 45.7011 14.1869 45.1365 13.9529C44.5726 13.7189 43.9462 13.6015 43.2585 13.6015C42.4334 13.6015 41.7205 13.7249 41.1192 13.9709C40.5179 14.2169 40.0329 14.5402 39.6635 14.9415C39.2948 15.3429 39.0078 15.7829 38.8037 16.2629C38.4561 17.0896 38.2827 17.9856 38.2827 18.9522C38.2827 20.1429 38.4922 21.1396 38.9105 21.9416C39.3288 22.7436 39.9383 23.3389 40.7376 23.7283C41.5375 24.1169 42.3871 24.3116 43.2863 24.3116C44.0672 24.3116 44.8298 24.1643 45.5739 23.8696C46.3181 23.5749 46.882 23.2603 47.2663 22.9263V20.4376H43.2585Z" fill="white"/>
<path d="M43.2585 20.4376V18.8702L49.0335 18.8609V23.8189C48.1465 24.5123 47.2323 25.0329 46.2902 25.3823C45.3474 25.7316 44.3801 25.9063 43.3884 25.9063C42.049 25.9063 40.8321 25.6256 39.7383 25.0636C38.6439 24.5016 37.8174 23.6889 37.2596 22.6249C36.7018 21.5623 36.4229 20.3736 36.4229 19.0616C36.4229 17.7609 36.7005 16.5476 37.2548 15.4202C37.8099 14.2929 38.6085 13.4555 39.6499 12.9089C40.6913 12.3622 41.8912 12.0889 43.2489 12.0889C44.2346 12.0889 45.1257 12.2455 45.9229 12.5582C46.7194 12.8709 47.3439 13.3069 47.7962 13.8662C48.2492 14.4249 48.5927 15.1542 48.8288 16.0536L47.201 16.4909C46.9969 15.8102 46.7425 15.2756 46.4385 14.8869C46.1351 14.4982 45.7011 14.1869 45.1365 13.9529C44.5726 13.7189 43.9462 13.6015 43.2585 13.6015C42.4334 13.6015 41.7205 13.7249 41.1192 13.9709C40.5179 14.2169 40.0329 14.5402 39.6635 14.9415C39.2948 15.3429 39.0078 15.7829 38.8037 16.2629C38.4561 17.0896 38.2827 17.9856 38.2827 18.9522C38.2827 20.1429 38.4922 21.1396 38.9105 21.9416C39.3288 22.7436 39.9383 23.3389 40.7376 23.7283C41.5375 24.1169 42.3871 24.3116 43.2863 24.3116C44.0672 24.3116 44.8298 24.1643 45.5739 23.8696C46.3181 23.5749 46.882 23.2603 47.2663 22.9263V20.4376H43.2585Z" fill="white"/>
<path d="M52.5768 20.8389C52.5768 22.0782 52.8523 23.0063 53.4046 23.6229C53.9563 24.2403 54.6508 24.5483 55.4875 24.5483C56.318 24.5483 57.0098 24.2383 57.5614 23.6189C58.1131 22.9989 58.3893 22.0543 58.3893 20.7842C58.3893 19.5869 58.1117 18.6802 57.5567 18.0636C57.0016 17.4469 56.3119 17.1382 55.4875 17.1382C54.6508 17.1382 53.9563 17.4449 53.4046 18.0589C52.8523 18.6722 52.5768 19.5989 52.5768 20.8389ZM50.8559 20.8389C50.8559 19.0462 51.3647 17.7182 52.3816 16.8555C53.2305 16.1389 54.2658 15.7802 55.4875 15.7802C56.8452 15.7802 57.9553 16.2162 58.8171 17.0882C59.6783 17.9602 60.1095 19.1649 60.1095 20.7022C60.1095 21.9476 59.9191 22.9276 59.5375 23.6416C59.1566 24.3556 58.6015 24.9103 57.873 25.3049C57.1445 25.6996 56.3493 25.8976 55.4875 25.8976C54.1046 25.8976 52.987 25.4629 52.1347 24.5936C51.2823 23.7249 50.8559 22.4736 50.8559 20.8389Z" fill="white"/>
<path d="M52.5768 20.8389C52.5768 22.0782 52.8523 23.0063 53.4046 23.6229C53.9563 24.2403 54.6508 24.5483 55.4875 24.5483C56.318 24.5483 57.0098 24.2383 57.5614 23.6189C58.1131 22.9989 58.3893 22.0543 58.3893 20.7842C58.3893 19.5869 58.1117 18.6802 57.5567 18.0636C57.0016 17.4469 56.3119 17.1382 55.4875 17.1382C54.6508 17.1382 53.9563 17.4449 53.4046 18.0589C52.8523 18.6722 52.5768 19.5989 52.5768 20.8389ZM50.8559 20.8389C50.8559 19.0462 51.3647 17.7182 52.3816 16.8555C53.2305 16.1389 54.2658 15.7802 55.4875 15.7802C56.8452 15.7802 57.9553 16.2162 58.8171 17.0882C59.6783 17.9602 60.1095 19.1649 60.1095 20.7022C60.1095 21.9476 59.9191 22.9276 59.5375 23.6416C59.1566 24.3556 58.6015 24.9103 57.873 25.3049C57.1445 25.6996 56.3493 25.8976 55.4875 25.8976C54.1046 25.8976 52.987 25.4629 52.1347 24.5936C51.2823 23.7249 50.8559 22.4736 50.8559 20.8389Z" fill="white"/>
<path d="M63.1692 20.8389C63.1692 22.0782 63.4446 23.0063 63.997 23.6229C64.5486 24.2403 65.2431 24.5483 66.0798 24.5483C66.911 24.5483 67.6021 24.2383 68.1538 23.6189C68.7055 22.9989 68.9816 22.0543 68.9816 20.7842C68.9816 19.5869 68.7041 18.6802 68.149 18.0636C67.594 17.4469 66.9042 17.1382 66.0798 17.1382C65.2431 17.1382 64.5486 17.4449 63.997 18.0589C63.4446 18.6722 63.1692 19.5989 63.1692 20.8389ZM61.4489 20.8389C61.4489 19.0462 61.957 17.7182 62.9739 16.8555C63.8235 16.1389 64.8588 15.7802 66.0798 15.7802C67.4375 15.7802 68.5477 16.2162 69.4095 17.0882C70.2713 17.9602 70.7019 19.1649 70.7019 20.7022C70.7019 21.9476 70.5114 22.9276 70.1298 23.6416C69.7489 24.3556 69.1939 24.9103 68.4653 25.3049C67.7368 25.6996 66.9417 25.8976 66.0798 25.8976C64.6976 25.8976 63.58 25.4629 62.7277 24.5936C61.8747 23.7249 61.4489 22.4736 61.4489 20.8389Z" fill="white"/>
<path d="M63.1692 20.8389C63.1692 22.0782 63.4446 23.0063 63.997 23.6229C64.5486 24.2403 65.2431 24.5483 66.0798 24.5483C66.911 24.5483 67.6021 24.2383 68.1538 23.6189C68.7055 22.9989 68.9816 22.0543 68.9816 20.7842C68.9816 19.5869 68.7041 18.6802 68.149 18.0636C67.594 17.4469 66.9042 17.1382 66.0798 17.1382C65.2431 17.1382 64.5486 17.4449 63.997 18.0589C63.4446 18.6722 63.1692 19.5989 63.1692 20.8389ZM61.4489 20.8389C61.4489 19.0462 61.957 17.7182 62.9739 16.8555C63.8235 16.1389 64.8588 15.7802 66.0798 15.7802C67.4375 15.7802 68.5477 16.2162 69.4095 17.0882C70.2713 17.9602 70.7019 19.1649 70.7019 20.7022C70.7019 21.9476 70.5114 22.9276 70.1298 23.6416C69.7489 24.3556 69.1939 24.9103 68.4653 25.3049C67.7368 25.6996 66.9417 25.8976 66.0798 25.8976C64.6976 25.8976 63.58 25.4629 62.7277 24.5936C61.8747 23.7249 61.4489 22.4736 61.4489 20.8389Z" fill="white"/>
<path d="M73.7432 20.6656C73.7432 21.9356 74.0003 22.8623 74.5152 23.4456C75.0294 24.0289 75.6743 24.3203 76.4491 24.3203C77.2184 24.3203 77.8632 24.0303 78.3836 23.4503C78.9047 22.8696 79.1652 21.9596 79.1652 20.7203C79.1652 19.5356 78.8965 18.6423 78.3605 18.0403C77.8245 17.4389 77.1776 17.1382 76.4212 17.1382C75.6777 17.1382 75.0451 17.4342 74.524 18.0269C74.0037 18.6196 73.7432 19.4989 73.7432 20.6656ZM72.3576 26.481L73.9846 26.7176C74.0533 27.2096 74.2424 27.5683 74.5519 27.793C74.9675 28.097 75.5349 28.249 76.2538 28.249C77.0293 28.249 77.6272 28.097 78.0489 27.793C78.4707 27.489 78.7557 27.0643 78.9047 26.517C78.991 26.183 79.0319 25.481 79.0257 24.4116C78.2938 25.2563 77.3823 25.679 76.2913 25.679C74.9335 25.679 73.8826 25.199 73.1384 24.2383C72.395 23.2783 72.0229 22.1269 72.0229 20.7843C72.0229 19.8603 72.1929 19.0083 72.5344 18.2276C72.8752 17.4469 73.3697 16.8436 74.0173 16.4182C74.6655 15.9929 75.4267 15.7802 76.3008 15.7802C77.466 15.7802 78.4272 16.2422 79.1836 17.1656V15.9989H80.7276V24.3663C80.7276 25.873 80.5705 26.941 80.2576 27.5696C79.9447 28.199 79.4488 28.6956 78.77 29.0603C78.0911 29.425 77.2551 29.607 76.2634 29.607C75.0852 29.607 74.1336 29.347 73.4085 28.8277C72.6827 28.3083 72.3324 27.5256 72.3576 26.481Z" fill="white"/>
<path d="M73.7432 20.6656C73.7432 21.9356 74.0003 22.8623 74.5152 23.4456C75.0294 24.0289 75.6743 24.3203 76.4491 24.3203C77.2184 24.3203 77.8632 24.0303 78.3836 23.4503C78.9047 22.8696 79.1652 21.9596 79.1652 20.7203C79.1652 19.5356 78.8965 18.6423 78.3605 18.0403C77.8245 17.4389 77.1776 17.1382 76.4212 17.1382C75.6777 17.1382 75.0451 17.4342 74.524 18.0269C74.0037 18.6196 73.7432 19.4989 73.7432 20.6656ZM72.3576 26.481L73.9846 26.7176C74.0533 27.2096 74.2424 27.5683 74.5519 27.793C74.9675 28.097 75.5349 28.249 76.2538 28.249C77.0293 28.249 77.6272 28.097 78.0489 27.793C78.4707 27.489 78.7557 27.0643 78.9047 26.517C78.991 26.183 79.0319 25.481 79.0257 24.4116C78.2938 25.2563 77.3823 25.679 76.2913 25.679C74.9335 25.679 73.8826 25.199 73.1384 24.2383C72.395 23.2783 72.0229 22.1269 72.0229 20.7843C72.0229 19.8603 72.1929 19.0083 72.5344 18.2276C72.8752 17.4469 73.3697 16.8436 74.0173 16.4182C74.6655 15.9929 75.4267 15.7802 76.3008 15.7802C77.466 15.7802 78.4272 16.2422 79.1836 17.1656V15.9989H80.7276V24.3663C80.7276 25.873 80.5705 26.941 80.2576 27.5696C79.9447 28.199 79.4488 28.6956 78.77 29.0603C78.0911 29.425 77.2551 29.607 76.2634 29.607C75.0852 29.607 74.1336 29.347 73.4085 28.8277C72.6827 28.3083 72.3324 27.5256 72.3576 26.481Z" fill="white"/>
<path d="M83.22 25.6789V12.3162H84.894V25.6789H83.22Z" fill="white"/>
<path d="M83.22 25.6789V12.3162H84.894V25.6789H83.22Z" fill="white"/>
<path d="M88.7529 19.9089H94.2681C94.1933 19.0949 93.9824 18.4842 93.6355 18.0769C93.1022 17.4449 92.4111 17.1289 91.5615 17.1289C90.7929 17.1289 90.1467 17.3816 89.6229 17.8856C89.0984 18.3902 88.8087 19.0642 88.7529 19.9089ZM94.2491 22.5616L95.9789 22.7709C95.7061 23.7616 95.2007 24.5303 94.4633 25.0769C93.7253 25.6236 92.7832 25.8976 91.6363 25.8976C90.1916 25.8976 89.0461 25.4616 88.1999 24.5896C87.3537 23.7176 86.9306 22.4943 86.9306 20.9209C86.9306 19.2922 87.3584 18.0282 88.2135 17.1289C89.0692 16.2295 90.1793 15.7802 91.5432 15.7802C92.8635 15.7802 93.9423 16.2209 94.7796 17.1016C95.6163 17.9829 96.0346 19.2222 96.0346 20.8202C96.0346 20.9176 96.0319 21.0636 96.0258 21.2582H88.6604C88.7223 22.3216 89.0291 23.1356 89.5807 23.7009C90.1324 24.2656 90.8208 24.5483 91.6452 24.5483C92.2594 24.5483 92.7832 24.3903 93.2172 24.0743C93.6511 23.7583 93.9953 23.2543 94.2491 22.5616Z" fill="white"/>
<path d="M88.7529 19.9089H94.2681C94.1933 19.0949 93.9824 18.4842 93.6355 18.0769C93.1022 17.4449 92.4111 17.1289 91.5615 17.1289C90.7929 17.1289 90.1467 17.3816 89.6229 17.8856C89.0984 18.3902 88.8087 19.0642 88.7529 19.9089ZM94.2491 22.5616L95.9789 22.7709C95.7061 23.7616 95.2007 24.5303 94.4633 25.0769C93.7253 25.6236 92.7832 25.8976 91.6363 25.8976C90.1916 25.8976 89.0461 25.4616 88.1999 24.5896C87.3537 23.7176 86.9306 22.4943 86.9306 20.9209C86.9306 19.2922 87.3584 18.0282 88.2135 17.1289C89.0692 16.2295 90.1793 15.7802 91.5432 15.7802C92.8635 15.7802 93.9423 16.2209 94.7796 17.1016C95.6163 17.9829 96.0346 19.2222 96.0346 20.8202C96.0346 20.9176 96.0319 21.0636 96.0258 21.2582H88.6604C88.7223 22.3216 89.0291 23.1356 89.5807 23.7009C90.1324 24.2656 90.8208 24.5483 91.6452 24.5483C92.2594 24.5483 92.7832 24.3903 93.2172 24.0743C93.6511 23.7583 93.9953 23.2543 94.2491 22.5616Z" fill="white"/>
<path d="M105.39 18.6696H108.915C110.08 18.6696 110.908 18.4569 111.398 18.0316C111.888 17.6062 112.133 17.0075 112.133 16.2355C112.133 15.6769 111.989 15.1982 111.701 14.8002C111.412 14.4022 111.032 14.1395 110.561 14.0122C110.257 13.9329 109.696 13.8935 108.878 13.8935H105.39V18.6696ZM103.586 25.6789V12.3162H108.73C109.634 12.3162 110.325 12.3589 110.803 12.4442C111.473 12.5535 112.034 12.7615 112.486 13.0682C112.939 13.3755 113.303 13.8055 113.579 14.3582C113.855 14.9109 113.993 15.5189 113.993 16.1809C113.993 17.3176 113.624 18.2789 112.886 19.0656C112.148 19.8529 110.816 20.2462 108.887 20.2462H105.39V25.6789H103.586Z" fill="white"/>
<path d="M105.39 18.6696H108.915C110.08 18.6696 110.908 18.4569 111.398 18.0316C111.888 17.6062 112.133 17.0075 112.133 16.2355C112.133 15.6769 111.989 15.1982 111.701 14.8002C111.412 14.4022 111.032 14.1395 110.561 14.0122C110.257 13.9329 109.696 13.8935 108.878 13.8935H105.39V18.6696ZM103.586 25.6789V12.3162H108.73C109.634 12.3162 110.325 12.3589 110.803 12.4442C111.473 12.5535 112.034 12.7615 112.486 13.0682C112.939 13.3755 113.303 13.8055 113.579 14.3582C113.855 14.9109 113.993 15.5189 113.993 16.1809C113.993 17.3176 113.624 18.2789 112.886 19.0656C112.148 19.8529 110.816 20.2462 108.887 20.2462H105.39V25.6789H103.586Z" fill="white"/>
<path d="M116.039 25.6789V12.3162H117.713V25.6789H116.039Z" fill="white"/>
<path d="M116.039 25.6789V12.3162H117.713V25.6789H116.039Z" fill="white"/>
<path d="M126.613 20.8202C126.005 21.0636 125.094 21.2702 123.879 21.4402C123.19 21.5376 122.704 21.6469 122.419 21.7682C122.133 21.8902 121.914 22.0676 121.758 22.3016C121.603 22.5356 121.526 22.7956 121.526 23.0809C121.526 23.5183 121.695 23.8829 122.033 24.1749C122.371 24.4663 122.865 24.6123 123.516 24.6123C124.161 24.6123 124.734 24.4743 125.236 24.1976C125.738 23.9209 126.108 23.5429 126.343 23.0629C126.523 22.6923 126.613 22.1456 126.613 21.4222V20.8202ZM126.753 24.4843C126.132 25.0009 125.536 25.3656 124.962 25.5783C124.389 25.7909 123.773 25.8976 123.116 25.8976C122.031 25.8976 121.197 25.6376 120.614 25.1183C120.031 24.5983 119.74 23.9349 119.74 23.1263C119.74 22.6523 119.85 22.2196 120.07 21.8276C120.291 21.4356 120.579 21.1209 120.935 20.8842C121.292 20.6476 121.693 20.4682 122.139 20.3462C122.468 20.2616 122.964 20.1796 123.628 20.1002C124.979 19.9422 125.974 19.7542 126.613 19.5356C126.619 19.3102 126.622 19.1676 126.622 19.1069C126.622 18.4389 126.464 17.9676 126.148 17.6942C125.72 17.3236 125.085 17.1382 124.241 17.1382C123.454 17.1382 122.873 17.2736 122.498 17.5436C122.122 17.8142 121.845 18.2929 121.665 18.9796L120.029 18.7602C120.178 18.0742 120.423 17.5196 120.763 17.0969C121.104 16.6749 121.597 16.3495 122.242 16.1222C122.887 15.8942 123.634 15.7802 124.483 15.7802C125.326 15.7802 126.011 15.8775 126.538 16.0715C127.066 16.2662 127.453 16.5109 127.701 16.8055C127.949 17.1002 128.123 17.4722 128.222 17.9222C128.278 18.2016 128.306 18.7056 128.306 19.4349V21.6222C128.306 23.1476 128.341 24.1123 128.412 24.5163C128.484 24.9209 128.625 25.3083 128.836 25.6789H127.087C126.914 25.3383 126.802 24.9403 126.753 24.4843Z" fill="white"/>
<path d="M126.613 20.8202C126.005 21.0636 125.094 21.2702 123.879 21.4402C123.19 21.5376 122.704 21.6469 122.419 21.7682C122.133 21.8902 121.914 22.0676 121.758 22.3016C121.603 22.5356 121.526 22.7956 121.526 23.0809C121.526 23.5183 121.695 23.8829 122.033 24.1749C122.371 24.4663 122.865 24.6123 123.516 24.6123C124.161 24.6123 124.734 24.4743 125.236 24.1976C125.738 23.9209 126.108 23.5429 126.343 23.0629C126.523 22.6923 126.613 22.1456 126.613 21.4222V20.8202ZM126.753 24.4843C126.132 25.0009 125.536 25.3656 124.962 25.5783C124.389 25.7909 123.773 25.8976 123.116 25.8976C122.031 25.8976 121.197 25.6376 120.614 25.1183C120.031 24.5983 119.74 23.9349 119.74 23.1263C119.74 22.6523 119.85 22.2196 120.07 21.8276C120.291 21.4356 120.579 21.1209 120.935 20.8842C121.292 20.6476 121.693 20.4682 122.139 20.3462C122.468 20.2616 122.964 20.1796 123.628 20.1002C124.979 19.9422 125.974 19.7542 126.613 19.5356C126.619 19.3102 126.622 19.1676 126.622 19.1069C126.622 18.4389 126.464 17.9676 126.148 17.6942C125.72 17.3236 125.085 17.1382 124.241 17.1382C123.454 17.1382 122.873 17.2736 122.498 17.5436C122.122 17.8142 121.845 18.2929 121.665 18.9796L120.029 18.7602C120.178 18.0742 120.423 17.5196 120.763 17.0969C121.104 16.6749 121.597 16.3495 122.242 16.1222C122.887 15.8942 123.634 15.7802 124.483 15.7802C125.326 15.7802 126.011 15.8775 126.538 16.0715C127.066 16.2662 127.453 16.5109 127.701 16.8055C127.949 17.1002 128.123 17.4722 128.222 17.9222C128.278 18.2016 128.306 18.7056 128.306 19.4349V21.6222C128.306 23.1476 128.341 24.1123 128.412 24.5163C128.484 24.9209 128.625 25.3083 128.836 25.6789H127.087C126.914 25.3383 126.802 24.9403 126.753 24.4843Z" fill="white"/>
<path d="M130.826 29.4063L130.639 27.8663C131.005 27.963 131.325 28.0123 131.598 28.0123C131.97 28.0123 132.267 27.951 132.49 27.8296C132.713 27.7083 132.896 27.5376 133.039 27.319C133.145 27.155 133.315 26.7483 133.551 26.0976C133.581 26.007 133.631 25.873 133.7 25.697L129.952 15.9989H131.756L133.811 21.6043C134.077 22.3156 134.316 23.0629 134.527 23.8463C134.719 23.0929 134.949 22.3576 135.215 21.6409L137.327 15.9989H139L135.243 25.843C134.84 26.9056 134.527 27.6383 134.304 28.039C134.007 28.5803 133.665 28.9763 133.281 29.229C132.896 29.481 132.438 29.607 131.905 29.607C131.582 29.607 131.222 29.5403 130.826 29.4063Z" fill="white"/>
<path d="M130.826 29.4063L130.639 27.8663C131.005 27.963 131.325 28.0123 131.598 28.0123C131.97 28.0123 132.267 27.951 132.49 27.8296C132.713 27.7083 132.896 27.5376 133.039 27.319C133.145 27.155 133.315 26.7483 133.551 26.0976C133.581 26.007 133.631 25.873 133.7 25.697L129.952 15.9989H131.756L133.811 21.6043C134.077 22.3156 134.316 23.0629 134.527 23.8463C134.719 23.0929 134.949 22.3576 135.215 21.6409L137.327 15.9989H139L135.243 25.843C134.84 26.9056 134.527 27.6383 134.304 28.039C134.007 28.5803 133.665 28.9763 133.281 29.229C132.896 29.481 132.438 29.607 131.905 29.607C131.582 29.607 131.222 29.5403 130.826 29.4063Z" fill="white"/>
</svg>
